<svg width="22" height="20" viewBox="0 0 22 20" fill="none" xmlns="http://www.w3.org/2000/svg">
<path d="M5.44444 5.44444H16.5556H5.44444ZM5.44444 9.88889H9.88889H5.44444ZM11 18.7778L6.55556 14.3333H3.22222C2.63285 14.3333 2.06762 14.0992 1.65087 13.6825C1.23413 13.2657 1 12.7005 1 12.1111V3.22222C1 2.63285 1.23413 2.06762 1.65087 1.65087C2.06762 1.23413 2.63285 1 3.22222 1H18.7778C19.3671 1 19.9324 1.23413 20.3491 1.65087C20.7659 2.06762 21 2.63285 21 3.22222V12.1111C21 12.7005 20.7659 13.2657 20.3491 13.6825C19.9324 14.0992 19.3671 14.3333 18.7778 14.3333H15.4444L11 18.7778Z" stroke="#8B8B8B" stroke-width="2" stroke-linecap="round" stroke-linejoin="round"/>
</svg>
