<svg width="22" height="26" viewBox="0 0 22 26" fill="none" xmlns="http://www.w3.org/2000/svg">
<path d="M18.0712 18.1396L12.7675 23.4647C12.5356 23.6978 12.2601 23.8827 11.9569 24.0089C11.6538 24.1351 11.3288 24.2 11.0006 24.2C10.6724 24.2 10.3475 24.1351 10.0443 24.0089C9.74113 23.8827 9.4657 23.6978 9.23375 23.4647L3.92875 18.1396C2.53028 16.7354 1.57792 14.9464 1.19211 12.9988C0.806304 11.0512 1.00437 9.03247 1.76126 7.19789C2.51815 5.3633 3.79987 3.79526 5.44435 2.69205C7.08883 1.58884 9.02221 1 11 1C12.9778 1 14.9112 1.58884 16.5556 2.69205C18.2001 3.79526 19.4819 5.3633 20.2387 7.19789C20.9956 9.03247 21.1937 11.0512 20.8079 12.9988C20.4221 14.9464 19.4697 16.7354 18.0712 18.1396V18.1396Z" stroke="#8B8B8B" stroke-width="2" stroke-linecap="round" stroke-linejoin="round"/>
<path d="M14.749 11.0395C14.749 12.0381 14.3539 12.9957 13.6507 13.7018C12.9474 14.4079 11.9936 14.8046 10.999 14.8046C10.0045 14.8046 9.05063 14.4079 8.34737 13.7018C7.64411 12.9957 7.24902 12.0381 7.24902 11.0395C7.24902 10.0409 7.64411 9.08327 8.34737 8.37718C9.05063 7.67109 10.0045 7.27441 10.999 7.27441C11.9936 7.27441 12.9474 7.67109 13.6507 8.37718C14.3539 9.08327 14.749 10.0409 14.749 11.0395V11.0395Z" stroke="#8B8B8B" stroke-width="2" stroke-linecap="round" stroke-linejoin="round"/>
</svg>
