<svg width="22" height="22" viewBox="0 0 22 22" fill="none" xmlns="http://www.w3.org/2000/svg">
<path d="M15.4444 1H21H15.4444ZM21 1V6.55556V1ZM21 1L14.3333 7.66667L21 1ZM3.22222 1C2.63285 1 2.06762 1.23413 1.65087 1.65087C1.23413 2.06762 1 2.63285 1 3.22222V4.33333C1 13.5378 8.46222 21 17.6667 21H18.7778C19.3671 21 19.9324 20.7659 20.3491 20.3491C20.7659 19.9324 21 19.3671 21 18.7778V15.1333C20.9998 14.9002 20.9263 14.6731 20.7899 14.484C20.6536 14.295 20.4612 14.1537 20.24 14.08L15.2478 12.4156C14.9941 12.3312 14.7185 12.3412 14.4715 12.4436C14.2246 12.5461 14.0228 12.7342 13.9033 12.9733L12.6478 15.4811C9.92699 14.2516 7.74791 12.0721 6.51889 9.35111L9.02667 8.09778C9.26584 7.97828 9.4539 7.77656 9.55635 7.52961C9.65881 7.28266 9.66878 7.00704 9.58444 6.75333L7.92 1.75889C7.84609 1.53776 7.70449 1.34548 7.51525 1.20928C7.32601 1.07308 7.09871 0.999866 6.86556 1H3.22222Z" stroke-width="2" stroke-linecap="round" stroke-linejoin="round"/>
</svg>
